<svg width="80" height="62" viewBox="0 0 80 62" fill="none" xmlns="http://www.w3.org/2000/svg">
<g clip-path="url(#clip0_76_1343)">
<path d="M54.0156 6.87169C65.6648 12.9931 70.8033 28.4601 62.7777 43.6263C54.1065 60.0148 38.7592 65.0012 26.2244 58.4141C13.1446 51.5392 9.49839 35.3964 17.0763 21.0678C24.2975 7.42466 39.6415 -0.682308 54.0156 6.87169ZM51.1609 8.97685C43.5311 4.96702 32.7935 8.47885 25.2544 22.7331C17.7543 36.9098 19.1785 51.0056 28.8488 56.0923C37.0918 60.4255 46.9178 56.8231 54.7001 42.1129C63.1669 26.1059 60.0819 13.669 51.1609 8.98008V8.97685Z" fill="#D4B469"/>
<path d="M74.5404 4.45931C73.2979 5.47793 72.1106 6.558 70.9006 7.61543C69.3338 8.98653 67.7475 10.3382 66.2195 11.7481C65.681 12.2461 64.909 11.7934 64.7824 11.2146C64.7208 10.9332 64.7857 10.7133 64.9349 10.4643C65.8335 8.94126 66.7029 7.402 67.5917 5.87245C68.4838 4.33319 69.3792 2.79394 70.2907 1.26762C70.5016 0.911907 70.7352 0.540028 71.0498 0.287797C71.4975 -0.074381 72.0717 -0.0194076 72.6232 0.0549682C73.7813 0.206954 74.5306 0.866635 75.0464 1.87879C75.3968 2.57081 75.0854 4.01629 74.5436 4.45931H74.5404Z" fill="#D4B469"/>
<path d="M68.711 20.0362C70.0475 20.2302 71.0013 20.9836 71.5755 22.1769C71.968 22.9886 72.3183 23.8293 72.5876 24.6895C73.6743 28.1949 74.7384 31.7067 75.7797 35.225C77.1746 39.9333 78.5371 44.6513 79.9125 49.3661C80.1493 50.1745 79.932 50.4753 79.0821 50.4914C78.7966 50.4979 78.5111 50.4979 78.2289 50.4656C77.5671 50.3912 77.0481 50.0743 76.7399 49.476C76.5647 49.1333 76.4123 48.7711 76.302 48.4024C75.5234 45.8025 74.7578 43.1994 73.9857 40.5962C73.9274 40.399 73.869 40.1985 73.8041 40.0044C73.6062 39.4159 73.2364 39.0279 72.5811 38.9761C72.1951 38.9438 71.809 38.8791 71.423 38.8791C69.5026 38.8694 67.5854 38.8597 65.6649 38.8791C63.7218 38.8985 61.7786 38.9502 59.8387 38.9923C59.683 38.9923 59.5273 39.0246 59.3748 39.0214C58.5346 39.0214 58.0123 39.4612 57.7593 40.2243C57.4609 41.1298 57.1851 42.0449 56.9159 42.9633C56.3839 44.771 55.8616 46.5819 55.3361 48.3895C55.3004 48.5124 55.2485 48.632 55.2095 48.7549C54.6743 50.5173 53.4675 50.6305 52.1959 50.5335C51.7806 50.5011 51.5665 50.2004 51.6055 49.7735C51.6217 49.5698 51.6833 49.3661 51.7417 49.1688C52.0791 48.0564 52.4132 46.944 52.7636 45.8381C53.9671 42.0158 55.1771 38.2 56.3839 34.3778C57.4187 31.0987 58.4438 27.8197 59.5013 24.5472C59.7381 23.8132 60.0625 23.1017 60.3902 22.4C61.1493 20.7864 62.4501 20.1493 64.1402 19.9359C64.802 19.8518 67.887 19.9133 68.7045 20.0329L68.711 20.0362ZM68.6818 36.3374C69.5642 36.3374 70.4466 36.3697 71.3257 36.3277C72.3313 36.2824 72.6103 35.8944 72.4221 34.9275C72.3929 34.7755 72.3508 34.6268 72.3118 34.478C71.6501 32.0592 71.0175 29.6339 70.3103 27.2312C69.9924 26.1447 69.5577 25.0872 69.1165 24.0428C68.7337 23.1373 68.7629 22.4809 64.3284 22.7978C63.5693 22.953 63.0081 23.2828 62.356 25.2231C61.3764 28.4018 60.3967 31.5838 59.4657 34.7787C59.1542 35.8523 59.4657 36.2016 60.5978 36.221C63.2903 36.2727 65.9861 36.2986 68.6786 36.3374H68.6818Z" fill="black"/>
<path d="M17.9036 19.8874C19.0877 19.978 20.142 20.366 20.6383 21.5981C20.6967 21.7403 20.7648 21.8826 20.7972 22.0314C20.9659 22.8269 20.7129 23.0629 19.9084 22.9821C16.8461 22.6717 13.7902 22.1704 10.6987 22.3903C9.43679 22.4809 8.17164 22.6361 6.92595 22.8657C4.89521 23.2376 3.71116 24.5246 3.26024 26.5069C2.95206 27.8586 2.91313 29.2167 3.13048 30.5878C3.29917 31.6582 3.81496 32.4149 4.93089 32.6574C6.82863 33.0681 8.71663 33.5176 10.6241 33.8733C13.0636 34.326 15.5517 34.5201 17.9458 35.225C19.1331 35.5969 20.395 36.2598 20.7648 36.9098C21.1963 37.66 21.4428 38.4749 21.5369 39.3318C21.8288 42.0158 21.6569 44.6513 20.5702 47.1639C19.8922 48.7388 18.6789 49.738 17.031 50.1551C15.0132 50.6693 12.9435 50.8084 10.8674 50.8375C8.48306 50.873 6.09873 50.8278 3.73062 50.4947C3.19536 50.4203 2.66335 50.2877 2.14106 50.139C1.02838 49.8253 0.541778 48.9716 0.337407 47.9239C0.207647 47.2577 0.412019 47.0702 1.09001 47.206C4.2529 47.8398 7.44823 48.1244 10.6695 48.0662C11.8082 48.0467 12.9468 47.9691 14.0789 47.8495C16.9207 47.5488 17.7479 46.2391 18.1501 44.3053C18.4518 42.8566 18.5037 41.3853 18.228 39.9139C18.0496 38.9632 17.6441 37.9413 13.6475 37.3528C10.5073 36.6964 7.3574 36.0755 4.21722 35.4223C3.58464 35.2897 2.96828 35.0827 2.34544 34.9081C1.4209 34.6494 0.820761 34.0447 0.532046 33.149C0.366603 32.6348 0.223867 32.1045 0.155743 31.5709C-0.110264 29.5045 -0.0518719 27.4446 0.473654 25.4171C1.18409 22.6878 2.92935 21.016 5.6835 20.3466C7.68829 19.8583 9.72227 19.7193 11.7725 19.6675C12.1098 19.6578 12.4472 19.6675 12.7846 19.6675C12.7846 19.6578 16.2038 19.7613 17.9068 19.8907L17.9036 19.8874Z" fill="black"/>
<path d="M29.183 35.3575C29.183 30.7559 29.183 26.1544 29.183 21.5528C29.183 21.3717 29.1765 21.1906 29.183 21.0095C29.209 20.3563 29.3063 20.2463 29.9551 20.214C31.0159 20.1655 32.0799 20.1073 33.1407 20.0976C36.3003 20.0717 39.4632 20.0394 42.6229 20.0652C43.6285 20.0749 44.6374 20.2237 45.6333 20.3757C47.3753 20.6408 48.647 21.6239 49.3898 23.189C49.7694 23.9942 50.0386 24.8867 50.1684 25.7695C50.5317 28.2466 50.522 30.7236 49.6785 33.123C49.432 33.8248 49.1076 34.5103 48.7216 35.1474C47.9754 36.3762 46.8563 37.1199 45.4451 37.4498C43.9724 37.7925 42.4769 37.9187 40.9717 37.9251C38.6912 37.9381 36.4106 37.9316 34.1269 37.9316C33.8933 37.9316 33.6597 37.9316 33.4262 37.9316C32.4238 37.9478 32.1805 38.1644 32.161 39.1637C32.1383 40.4313 32.1545 41.6957 32.1545 42.9633C32.1545 45.0329 32.1545 47.0992 32.1545 49.1688C32.1545 50.4785 32.1383 50.4914 30.7888 50.4946C30.4514 50.4946 30.114 50.4914 29.7767 50.4946C29.3939 50.4979 29.1992 50.3103 29.1863 49.9352C29.1765 49.7024 29.1798 49.4695 29.1798 49.2367C29.1798 44.6092 29.1798 39.9818 29.1798 35.3543L29.183 35.3575ZM32.1318 28.9321C32.1318 30.688 32.1221 32.444 32.1351 34.1999C32.1415 35.1183 32.3135 35.3317 33.2153 35.3317C36.4528 35.3317 39.6903 35.3155 42.9278 35.2541C44.6796 35.2217 45.8863 34.3131 46.5968 32.7188C47.0801 31.6323 47.2358 30.4876 47.2715 29.3234C47.3169 27.9264 47.2488 26.5327 46.7817 25.1939C46.3016 23.8261 45.364 23.0047 43.901 22.8268C40.3391 22.3935 36.7675 22.539 33.1958 22.6684C32.2875 22.7007 32.1383 22.898 32.1351 23.8164C32.1286 25.5205 32.1351 27.2247 32.1351 28.9289L32.1318 28.9321Z" fill="black"/>
</g>
<defs>
<clipPath id="clip0_76_1343">
<rect width="80" height="61.2" fill="white"/>
</clipPath>
</defs>
</svg>
