<svg width="200" height="153" viewBox="0 0 200 153" fill="none" xmlns="http://www.w3.org/2000/svg">
<g clip-path="url(#clip0_3_487)">
<path d="M135.039 17.1792C164.162 32.4829 177.008 71.1502 156.944 109.066C135.266 150.037 96.8979 162.503 65.5609 146.035C32.8615 128.848 23.7459 88.4911 42.6908 52.6694C60.7436 18.5617 99.1038 -1.70576 135.039 17.1792ZM127.902 22.4421C108.828 12.4176 81.9836 21.1971 63.136 56.8329C44.3858 92.2746 47.9461 127.514 72.1219 140.231C92.7293 151.064 117.294 142.058 136.75 105.282C157.917 65.2648 150.205 34.1725 127.902 22.4502V22.4421Z" fill="#D4B469"/>
<path d="M186.351 11.1483C183.245 13.6948 180.277 16.395 177.252 19.0386C173.334 22.4663 169.369 25.8456 165.549 29.3704C164.203 30.6153 162.272 29.4835 161.956 28.0364C161.802 27.3331 161.964 26.7834 162.337 26.1609C164.584 22.3532 166.757 18.505 168.979 14.6811C171.21 10.833 173.448 6.98485 175.727 3.16905C176.254 2.27977 176.838 1.35007 177.625 0.719496C178.744 -0.185949 180.179 -0.0485152 181.558 0.137424C184.453 0.517388 186.327 2.16659 187.616 4.69698C188.492 6.42703 187.713 10.0407 186.359 11.1483H186.351Z" fill="#D4B469"/>
<path d="M171.778 50.0905C175.119 50.5755 177.503 52.4592 178.939 55.4423C179.92 57.4715 180.796 59.5734 181.469 61.7238C184.186 70.4872 186.846 79.2668 189.449 88.0625C192.936 99.8333 196.343 111.628 199.781 123.415C200.373 125.436 199.83 126.188 197.705 126.229C196.991 126.245 196.278 126.245 195.572 126.164C193.918 125.978 192.62 125.186 191.85 123.69C191.412 122.833 191.031 121.928 190.755 121.006C188.808 114.506 186.895 107.999 184.964 101.491C184.818 100.997 184.672 100.496 184.51 100.011C184.015 98.5398 183.091 97.5697 181.453 97.4404C180.488 97.3595 179.523 97.1978 178.557 97.1978C173.756 97.1736 168.963 97.1493 164.162 97.1978C159.304 97.2463 154.447 97.3757 149.597 97.4808C149.208 97.4808 148.818 97.5616 148.437 97.5535C146.337 97.5535 145.031 98.653 144.398 100.561C143.652 102.825 142.963 105.112 142.29 107.408C140.96 111.927 139.654 116.455 138.34 120.974C138.251 121.281 138.121 121.58 138.024 121.887C136.686 126.293 133.669 126.576 130.49 126.334C129.452 126.253 128.916 125.501 129.014 124.434C129.054 123.925 129.208 123.415 129.354 122.922C130.198 120.141 131.033 117.36 131.909 114.595C134.918 105.04 137.943 95.5001 140.96 85.9445C143.547 77.7469 146.109 69.5494 148.753 61.3681C149.345 59.533 150.156 57.7544 150.975 56.0001C152.873 51.966 156.125 50.3734 160.351 49.8399C162.005 49.6297 169.718 49.7833 171.761 50.0824L171.778 50.0905ZM171.705 90.8436C173.91 90.8436 176.116 90.9244 178.314 90.8193C180.828 90.7061 181.526 89.736 181.055 87.3188C180.982 86.9388 180.877 86.567 180.78 86.1951C179.125 80.148 177.544 74.0847 175.776 68.0781C174.981 65.3618 173.894 62.7182 172.791 60.1069C171.834 57.8433 171.907 56.2022 160.821 56.9945C158.923 57.3825 157.52 58.2071 155.89 63.0577C153.441 71.0046 150.992 78.9596 148.664 86.9469C147.886 89.6309 148.664 90.504 151.495 90.5525C158.226 90.6819 164.965 90.7465 171.696 90.8436H171.705Z" fill="white"/>
<path d="M44.759 49.7186C47.7192 49.945 50.3549 50.9151 51.5957 53.9952C51.7417 54.3509 51.912 54.7066 51.9931 55.0785C52.4148 57.0672 51.7822 57.6574 49.771 57.4553C42.1152 56.6792 34.4756 55.4261 26.7468 55.9759C23.592 56.2022 20.4291 56.5903 17.3149 57.1643C12.238 58.094 9.27789 61.3115 8.1506 66.2672C7.38015 69.6465 7.28283 73.0419 7.8262 76.4696C8.24792 79.1455 9.53741 81.0373 12.3272 81.6436C17.0716 82.6703 21.7916 83.794 26.5602 84.6833C32.6589 85.8151 38.8793 86.3002 44.8644 88.0626C47.8327 88.9923 50.9875 90.6495 51.912 92.2745C52.9906 94.1501 53.607 96.1873 53.8422 98.3296C54.5721 105.04 54.1422 111.628 51.4254 117.91C49.7304 121.847 46.6973 124.345 42.5774 125.388C37.533 126.673 32.3589 127.021 27.1685 127.094C21.2077 127.183 15.2468 127.069 9.32655 126.237C7.9884 126.051 6.65837 125.719 5.35266 125.347C2.57094 124.563 1.35444 122.429 0.843517 119.81C0.519118 118.144 1.03005 117.675 2.72503 118.015C10.6323 119.6 18.6206 120.311 26.6738 120.165C29.5204 120.117 32.367 119.923 35.1974 119.624C42.3017 118.872 44.3697 115.598 45.3754 110.763C46.1296 107.142 46.2594 103.463 45.57 99.7848C45.124 97.408 44.1102 94.8534 34.1187 93.382C26.2683 91.7409 18.3935 90.1887 10.543 88.5557C8.9616 88.2242 7.4207 87.7068 5.86359 87.2703C3.55225 86.6235 2.0519 85.1118 1.33012 82.8724C0.916507 81.587 0.559668 80.2612 0.389358 78.9273C-0.275659 73.7614 -0.12968 68.6117 1.18414 63.5428C2.96022 56.7196 7.32339 52.54 14.2088 50.8666C19.2207 49.6458 24.3057 49.2982 29.4312 49.1689C30.2746 49.1446 31.118 49.1689 31.9615 49.1689C31.9615 49.1446 40.5094 49.4033 44.7671 49.7267L44.759 49.7186Z" fill="white"/>
<path d="M72.9575 88.394C72.9575 76.89 72.9575 65.386 72.9575 53.882C72.9575 53.4293 72.9413 52.9765 72.9575 52.5238C73.0224 50.8908 73.2657 50.6159 74.8877 50.5351C77.5397 50.4138 80.1997 50.2683 82.8517 50.244C90.7508 50.1794 98.658 50.0985 106.557 50.1632C109.071 50.1874 111.593 50.5593 114.083 50.9393C118.438 51.6022 121.617 54.0598 123.475 57.9726C124.423 59.9856 125.097 62.2169 125.421 64.4239C126.329 70.6165 126.305 76.8091 124.196 82.8077C123.58 84.562 122.769 86.2759 121.804 87.8685C119.939 90.9405 117.141 92.7999 113.613 93.6245C109.931 94.4815 106.192 94.7967 102.429 94.8129C96.7279 94.8453 91.0265 94.8291 85.3171 94.8291C84.7332 94.8291 84.1493 94.8291 83.5654 94.8291C81.0594 94.8695 80.4511 95.4112 80.4025 97.9092C80.3457 101.078 80.3863 104.239 80.3863 107.408C80.3863 112.582 80.3863 117.748 80.3863 122.922C80.3863 126.196 80.3457 126.229 76.972 126.237C76.1285 126.237 75.2851 126.229 74.4417 126.237C73.4847 126.245 72.9981 125.776 72.9656 124.838C72.9413 124.256 72.9494 123.674 72.9494 123.092C72.9494 111.523 72.9494 99.9546 72.9494 88.3859L72.9575 88.394ZM80.3295 72.3304C80.3295 76.7202 80.3052 81.11 80.3376 85.4998C80.3538 87.7957 80.7837 88.3293 83.0382 88.3293C91.132 88.3293 99.2257 88.2889 107.319 88.1353C111.699 88.0544 114.716 85.7827 116.492 81.7972C117.7 79.0808 118.09 76.219 118.179 73.3086C118.292 69.8162 118.122 66.3318 116.954 62.9849C115.754 59.5653 113.41 57.5118 109.752 57.0672C100.848 55.9839 91.9186 56.3477 82.9896 56.6711C80.7188 56.7519 80.3457 57.2451 80.3376 59.541C80.3214 63.8014 80.3376 68.0619 80.3376 72.3223L80.3295 72.3304Z" fill="white"/>
</g>
<defs>
<clipPath id="clip0_3_487">
<rect width="200" height="153" fill="white"/>
</clipPath>
</defs>
</svg>
