<svg width="100" height="77" viewBox="0 0 100 77" fill="none" xmlns="http://www.w3.org/2000/svg">
<g clip-path="url(#clip0_76_12)">
<path d="M67.5195 8.58962C82.0809 16.2414 88.504 35.5751 78.472 54.5328C67.633 75.0185 48.4489 81.2515 32.7804 73.0177C16.4307 64.424 11.8729 44.2455 21.3453 26.3347C30.3717 9.28083 49.5518 -0.852878 67.5195 8.58962ZM63.9511 11.2211C54.4138 6.20878 40.9917 10.5986 31.568 28.4164C22.1928 46.1373 23.973 63.7571 36.0609 70.1154C46.3646 75.5319 58.6472 71.0289 68.3751 52.6411C78.9586 32.6324 75.1023 17.0862 63.9511 11.2251V11.2211Z" fill="#D4B469"/>
<path d="M93.1754 5.57414C91.6223 6.84742 90.1382 8.1975 88.6257 9.51929C86.6671 11.2332 84.6843 12.9228 82.7744 14.6852C82.1012 15.3077 81.1361 14.7418 80.978 14.0182C80.901 13.6665 80.9821 13.3917 81.1686 13.0804C82.2918 11.1766 83.3786 9.25251 84.4896 7.34056C85.6047 5.41649 86.7239 3.49242 87.8634 1.58452C88.1269 1.13989 88.4189 0.675037 88.8122 0.359748C89.3718 -0.0929744 90.0896 -0.0242576 90.7789 0.0687122C92.2265 0.258694 93.1632 1.0833 93.808 2.34849C94.2459 3.21352 93.8566 5.02036 93.1794 5.57414H93.1754Z" fill="#D4B469"/>
<path d="M85.8889 25.0452C87.5595 25.2878 88.7517 26.2296 89.4694 27.7211C89.9601 28.7357 90.398 29.7867 90.7346 30.8619C92.093 35.2436 93.423 39.6334 94.7247 44.0313C96.4683 49.9167 98.1714 55.8142 99.8907 61.7077C100.187 62.7182 99.9151 63.0941 98.8527 63.1143C98.4958 63.1224 98.139 63.1224 97.7862 63.082C96.959 62.989 96.3102 62.5929 95.925 61.8451C95.706 61.4166 95.5154 60.9639 95.3775 60.5031C94.4043 57.2532 93.4474 53.9993 92.4823 50.7453C92.4093 50.4987 92.3363 50.2481 92.2552 50.0056C92.0078 49.2699 91.5456 48.7849 90.7265 48.7202C90.2439 48.6798 89.7614 48.5989 89.2788 48.5989C86.8783 48.5868 84.4818 48.5747 82.0812 48.5989C79.6523 48.6232 77.2234 48.6878 74.7985 48.7404C74.6038 48.7404 74.4092 48.7808 74.2186 48.7768C73.1684 48.7768 72.5155 49.3265 72.1992 50.2805C71.8262 51.4123 71.4815 52.5562 71.1449 53.7042C70.4799 55.9637 69.8271 58.2274 69.1702 60.4869C69.1256 60.6405 69.0607 60.7901 69.012 60.9437C68.3429 63.1467 66.8345 63.2881 65.2449 63.1669C64.7259 63.1265 64.4583 62.7505 64.5069 62.217C64.5272 61.9623 64.6042 61.7077 64.6772 61.4611C65.099 60.0706 65.5166 58.6801 65.9546 57.2977C67.459 52.5198 68.9715 47.7501 70.4799 42.9722C71.7735 38.8735 73.0548 34.7747 74.3768 30.6841C74.6728 29.7665 75.0783 28.8772 75.4878 28.0001C76.4367 25.983 78.0627 25.1867 80.1754 24.9199C81.0026 24.8148 84.8589 24.8916 85.8808 25.0412L85.8889 25.0452ZM85.8524 45.4218C86.9553 45.4218 88.0583 45.4622 89.1572 45.4097C90.4142 45.3531 90.763 44.868 90.5278 43.6594C90.4913 43.4694 90.4386 43.2835 90.3899 43.0975C89.5627 40.074 88.772 37.0424 87.888 34.039C87.4906 32.6809 86.9472 31.3591 86.3957 30.0535C85.9172 28.9217 85.9537 28.1011 80.4106 28.4972C79.4617 28.6913 78.7602 29.1036 77.9451 31.5289C76.7205 35.5023 75.4959 39.4798 74.3322 43.4735C73.9429 44.8155 74.3322 45.252 75.7473 45.2763C79.113 45.3409 82.4827 45.3733 85.8483 45.4218H85.8524Z" fill="black"/>
<path d="M22.3795 24.8594C23.8595 24.9725 25.1774 25.4576 25.7978 26.9977C25.8708 27.1755 25.956 27.3534 25.9965 27.5393C26.2074 28.5337 25.8911 28.8288 24.8855 28.7277C21.0575 28.3397 17.2378 27.7131 13.3734 27.988C11.796 28.1012 10.2145 28.2952 8.6574 28.5822C6.11898 29.047 4.63891 30.6558 4.07527 33.1337C3.69005 34.8233 3.64139 36.521 3.91307 38.2349C4.12393 39.5728 4.76867 40.5187 6.16359 40.8219C8.53575 41.3352 10.8958 41.8971 13.2801 42.3417C16.3294 42.9076 19.4396 43.1501 22.4322 44.0313C23.9163 44.4962 25.4937 45.3248 25.956 46.1373C26.4953 47.0751 26.8035 48.0937 26.9211 49.1649C27.286 52.5199 27.0711 55.8142 25.7127 58.955C24.8652 60.9235 23.3486 62.1726 21.2887 62.694C18.7665 63.3367 16.1794 63.5105 13.5842 63.5469C10.6038 63.5914 7.62338 63.5348 4.66324 63.1184C3.99417 63.0255 3.32915 62.8597 2.6763 62.6738C1.28544 62.2817 0.677192 61.2146 0.421728 59.9049C0.259528 59.0722 0.514993 58.8378 1.36248 59.0076C5.3161 59.7998 9.31026 60.1555 13.3369 60.0828C14.7602 60.0585 16.1835 59.9615 17.5986 59.8119C21.1508 59.436 22.1848 57.7989 22.6877 55.3817C23.0648 53.5708 23.1296 51.7317 22.785 49.8925C22.5619 48.7041 22.0551 47.4268 17.0593 46.6911C13.1341 45.8705 9.19672 45.0944 5.27149 44.2779C4.48077 44.1122 3.71032 43.8535 2.93176 43.6352C1.77609 43.3118 1.02592 42.556 0.665027 41.4363C0.458223 40.7936 0.279803 40.1306 0.194649 39.4637C-0.13786 36.8808 -0.0648704 34.3059 0.592037 31.7715C1.48008 28.3599 3.66166 26.2701 7.10434 25.4333C9.61033 24.823 12.1528 24.6492 14.7156 24.5845C15.1373 24.5724 15.559 24.5845 15.9807 24.5845C15.9807 24.5724 20.2547 24.7017 22.3835 24.8634L22.3795 24.8594Z" fill="black"/>
<path d="M36.4788 44.1971C36.4788 38.4451 36.4788 32.6931 36.4788 26.9411C36.4788 26.7147 36.4707 26.4884 36.4788 26.262C36.5112 25.4455 36.6329 25.3081 37.4438 25.2677C38.7698 25.207 40.0999 25.1343 41.4258 25.1221C45.3754 25.0898 49.329 25.0494 53.2786 25.0817C54.5356 25.0938 55.7967 25.2798 57.0416 25.4698C59.2191 25.8012 60.8087 27.03 61.7373 28.9864C62.2117 29.9929 62.5483 31.1086 62.7105 32.2121C63.1646 35.3084 63.1525 38.4047 62.0982 41.404C61.79 42.2811 61.3845 43.1381 60.9019 43.9344C59.9693 45.4704 58.5703 46.4001 56.8064 46.8124C54.9654 47.2409 53.0961 47.3985 51.2146 47.4066C48.3639 47.4228 45.5133 47.4147 42.6586 47.4147C42.3666 47.4147 42.0746 47.4147 41.7827 47.4147C40.5297 47.4349 40.2256 47.7057 40.2012 48.9547C40.1729 50.5393 40.1931 52.1197 40.1931 53.7043C40.1931 56.2913 40.1931 58.8742 40.1931 61.4612C40.1931 63.0983 40.1729 63.1144 38.486 63.1185C38.0643 63.1185 37.6425 63.1144 37.2208 63.1185C36.7423 63.1225 36.499 62.8881 36.4828 62.4192C36.4707 62.1281 36.4747 61.8371 36.4747 61.5461C36.4747 55.7617 36.4747 49.9774 36.4747 44.1931L36.4788 44.1971ZM40.1647 36.1653C40.1647 38.3602 40.1526 40.5551 40.1688 42.75C40.1769 43.898 40.3918 44.1648 41.5191 44.1648C45.566 44.1648 49.6129 44.1446 53.6597 44.0678C55.8494 44.0273 57.3579 42.8915 58.2459 40.8987C58.8501 39.5405 59.0448 38.1096 59.0894 36.6544C59.1461 34.9082 59.061 33.166 58.4771 31.4926C57.8769 29.7828 56.705 28.756 54.8762 28.5337C50.4239 27.9921 45.9593 28.174 41.4948 28.3357C40.3594 28.3761 40.1729 28.6226 40.1688 29.7706C40.1607 31.9008 40.1688 34.0311 40.1688 36.1613L40.1647 36.1653Z" fill="black"/>
</g>
<defs>
<clipPath id="clip0_76_12">
<rect width="100" height="76.5" fill="white"/>
</clipPath>
</defs>
</svg>
